<?xml version="1.0" encoding="UTF-8" standalone="no"?><!-- Generator: Gravit.io --><svg xmlns="http://www.w3.org/2000/svg" xmlns:xlink="http://www.w3.org/1999/xlink" style="isolation:isolate" viewBox="0 0 32 32" width="32pt" height="32pt"><mask id="_mask_DI2NcJRTQcdJyLNC1zPwQf53AmkVsqJY"><path d=" M 8 5 L 24 5 L 24 12 L 20 16 L 12 16 L 8 12 L 8 5 Z " fill="white" stroke="none"/></mask><path d=" M 8 5 L 24 5 L 24 12 L 20 16 L 12 16 L 8 12 L 8 5 Z " fill="rgb(37,89,204)" mask="url(#_mask_DI2NcJRTQcdJyLNC1zPwQf53AmkVsqJY)" vector-effect="non-scaling-stroke" stroke-width="4" stroke="rgb(27,75,179)" stroke-linejoin="miter" stroke-linecap="square" stroke-miterlimit="3"/><path d=" M 8 5 L 24 5 L 24 12 L 20 16 L 12 16 L 8 12 L 8 5 Z " fill="rgb(37,89,204)"/><mask id="_mask_Fo0RKc9CN3zupdd8wvxM70iqvShXfl35"><circle vector-effect="non-scaling-stroke" cx="16" cy="21" r="8" fill="white" stroke="none"/></mask><circle vector-effect="non-scaling-stroke" cx="16" cy="21" r="8" fill="rgb(254,228,8)" mask="url(#_mask_Fo0RKc9CN3zupdd8wvxM70iqvShXfl35)" stroke-width="4" stroke="rgb(224,202,0)" stroke-linejoin="miter" stroke-linecap="square" stroke-miterlimit="3"/><circle vector-effect="non-scaling-stroke" cx="16" cy="21" r="8" fill="rgb(254,228,8)"/><rect x="8" y="3" width="16" height="2" transform="matrix(1,0,0,1,0,0)" fill="rgb(224,202,0)"/></svg>