<?xml version="1.0" encoding="UTF-8"?>
<svg width="600px" height="398px" viewBox="0 0 600 398" version="1.1" xmlns="http://www.w3.org/2000/svg" xmlns:xlink="http://www.w3.org/1999/xlink">
    <rect fill="#F1F8FF" x="0" y="0" width="600" height="398"></rect>
    <path d="M233,206 L368,206 L368,222 L233,222 L233,206 Z M386.222222,54 C392.15,54 397,58.1142857 397,63.1428571 L397,108.857143 C397,113.885714 392.15,118 386.222222,118 L375,118 L375,269 L375,269 C375,310.354464 341.354464,344 300,344 L300,344 C259.05908,344 225.673682,311.02401 225.010068,270.238295 L225,269 L224.999,118 L213.777778,118 C207.85,118 203,113.885714 203,108.857143 L203,63.1428571 C203,58.1142857 207.85,54 213.777778,54 L386.222222,54 Z M291.999,274 L241.281597,274.000387 C243.603493,301.506542 264.900158,323.69314 291.998911,327.387503 L291.999,274 Z M358.718403,274.000387 L307.999,274 L308.000089,327.38764 C335.099318,323.693686 356.396478,301.50688 358.718403,274.000387 Z M291.999,170 L240.999,170 L240.999,258 L291.999,258 L291.999,170 Z M359,170 L307.999,170 L307.999,258 L359,258 L359,170 Z M291.999,118 L240.999,118 L240.999,154 L291.999,154 L291.999,118 Z M359,118 L307.999,118 L307.999,154 L359,154 L359,118 Z" fill="#000000" fill-rule="nonzero"></path>
    <rect fill="#D0021B" opacity="0.75" transform="translate(300, 200) rotate(30) translate(-300, -200) " x="52" y="176" width="497" height="45"></rect>
</svg>