<?xml version="1.0" encoding="UTF-8"?>
<svg width="600px" height="398px" viewBox="0 0 600 398" version="1.1" xmlns="http://www.w3.org/2000/svg" xmlns:xlink="http://www.w3.org/1999/xlink">
    <rect fill="#F1F8FF" x="0" y="0" width="600" height="398"></rect>
    <path d="M386.222222,48 C392.15,48 397,52.8857143 397,58.8571429 L397,113.142857 C397,119.114286 392.15,124 386.222222,124 L374.999,123.999 L375,275 L359,275 L358.999,274 L307.999,274 L308,333.38764 C336.72354,329.472285 358.928571,304.780868 358.928571,275 L375,275 C375,316.354464 341.354464,350 300,350 L300,350 C258.645536,350 225,316.354464 225,275 L224.999,123.999 L213.777778,124 C207.85,124 203,119.114286 203,113.142857 L203,58.8571429 C203,52.8857143 207.85,48 213.777778,48 L386.222222,48 Z M291.999,274 L240.999,274 L241,275 L241.071429,275 C241.071429,304.780522 263.275945,329.471712 291.998911,333.387503 L291.999,274 Z M291.999,198.999 L240.999,198.999 L240.999,258 L291.999,258 L291.999,198.999 Z M358.999,198.999 L307.999,198.999 L307.999,258 L358.999,258 L358.999,198.999 Z M291.999,123.999 L240.999,123.999 L240.999,182.999 L291.999,182.999 L291.999,123.999 Z M358.999,123.999 L307.999,123.999 L307.999,182.999 L358.999,182.999 L358.999,123.999 Z" fill="#417505" fill-rule="nonzero"></path>
    <rect fill="#D0021B" opacity="0.75" transform="translate(300, 200) rotate(30) translate(-300, -200) " x="52" y="176" width="497" height="45"></rect>
</svg>