<?xml version="1.0" encoding="UTF-8"?>
<svg width="600px" height="398px" viewBox="0 0 600 398" version="1.1" xmlns="http://www.w3.org/2000/svg" xmlns:xlink="http://www.w3.org/1999/xlink">
    <rect fill="#F1F8FF" x="0" y="0" width="600" height="398"></rect>
    <path d="M407.666667,48 C415,48 421,52.8857143 421,58.8571429 L421,113.142857 C421,119.114286 415,124 407.666667,124 L394,124 L394,275 C394,316.354464 352.279536,350 301,350 C249.720464,350 208,316.354464 208,275 L208,124 L194.333333,124 C187,124 181,119.114286 181,113.142857 L181,58.8571429 C181,52.8857143 187,48 194.333333,48 L407.666667,48 Z M291,274 L228,274 L228,275 L227.928571,275 C227.928571,304.758418 255.421314,329.435056 290.999356,333.37875 L291,274 Z M374,274 L311,274 L311.001644,333.378639 C346.579201,329.434593 374.071429,304.758139 374.071429,275 L374,275 L374,274 Z M291,199 L228,199 L228,258 L291,258 L291,199 Z M374,199 L311,199 L311,258 L374,258 L374,199 Z M291,124 L228,124 L228,183 L291,183 L291,124 Z M374,124 L311,124 L311,183 L374,183 L374,124 Z" fill="#000000" fill-rule="nonzero"></path>
    <rect fill="#D0021B" opacity="0.75" transform="translate(300, 200) rotate(30) translate(-300, -200) " x="52" y="176" width="497" height="45"></rect>
</svg>