<?xml version="1.0" encoding="UTF-8" standalone="no"?>
<svg
   xmlns:dc="http://purl.org/dc/elements/1.1/"
   xmlns:cc="http://creativecommons.org/ns#"
   xmlns:rdf="http://www.w3.org/1999/02/22-rdf-syntax-ns#"
   xmlns:svg="http://www.w3.org/2000/svg"
   xmlns="http://www.w3.org/2000/svg"
   viewBox="0 0 165.17332 98.839996"
   height="98.839996"
   width="165.17332"
   xml:space="preserve"
   id="svg2"
   version="1.1"><metadata
     id="metadata8"><rdf:RDF><cc:Work
         rdf:about=""><dc:format>image/svg+xml</dc:format><dc:type
           rdf:resource="http://purl.org/dc/dcmitype/StillImage" /></cc:Work></rdf:RDF></metadata><defs
     id="defs6" /><g
     transform="matrix(1.3333333,0,0,-1.3333333,0,98.84)"
     id="g10"><g
       transform="scale(0.1)"
       id="g12"><path
         id="path14"
         style="fill:#959596;fill-opacity:1;fill-rule:nonzero;stroke:none"
         d="m 595.828,505.742 c 21.801,0 42.973,-1.992 63.184,-5.679 l 48.078,50.093 c -33.621,11.645 -71.367,18.172 -111.262,18.172 -67.836,0 -129.418,-18.91 -175.086,-49.707 l 41.899,-39.687 c 38.742,16.972 84.328,26.808 133.187,26.808" /><path
         id="path16"
         style="fill:#ffffff;fill-opacity:1;fill-rule:nonzero;stroke:none"
         d="m 595.828,568.328 c 39.895,0 77.641,-6.527 111.262,-18.172 l 52.273,54.422 c -48.777,19.231 -104.414,30.152 -163.535,30.152 -88.129,0 -168.539,-24.253 -229.91,-64.156 l 54.824,-51.953 c 45.668,30.797 107.25,49.707 175.086,49.707" /><path
         id="path18"
         style="fill:#959596;fill-opacity:1;fill-rule:nonzero;stroke:none"
         d="m 344.824,355.391 c 4.395,17.968 12.512,35 23.707,50.75 l -21.058,21.304 c -4.172,-13.09 -6.481,-26.722 -6.481,-40.757 0,-10.668 1.332,-21.114 3.832,-31.297" /><path
         id="path20"
         style="fill:#959596;fill-opacity:1;fill-rule:nonzero;stroke:none"
         d="m 189.215,237.637 -8.84,-45.832 87.969,37.871 c -5.551,11.679 -6.641,26.906 -9.848,39.289 l -69.281,-31.328" /><path
         id="path22"
         style="fill:#959596;fill-opacity:1;fill-rule:nonzero;stroke:none"
         d="M 127.313,736.086 0,38.9063 60.2148,34.0039 186.277,741.316 l -58.964,-5.23" /><path
         id="path24"
         style="fill:#ed1c24;fill-opacity:1;fill-rule:nonzero;stroke:none"
         d="m 555.438,334.891 v 56.382 l -92.473,87.661 -41.879,39.687 -54.848,51.953 L 186.07,741.328 59.9609,34.0039 326.797,151.309 c -26.567,23.464 -45.395,48.484 -59.387,77.968 l -86.859,-37.257 8.711,45.597 56.285,293.356 4.703,24.621 46.469,-46.789 59.801,-60.215 25.664,-25.891 105.546,-90.922 -102.453,-46.953 c 26.614,-26.57 58.129,-49.988 100.625,-63.215 l 127.828,57.395 -58.292,55.887" /><path
         id="path26"
         style="fill:#959596;fill-opacity:1;fill-rule:nonzero;stroke:none"
         d="m 846.816,355.391 c 2.481,10.183 3.848,20.629 3.848,31.297 0,31.484 -11.516,61.21 -31.328,87.019 l -30.352,-31.422 c 29.153,-24.254 49.856,-54.14 57.832,-86.894" /><path
         id="path28"
         style="fill:#959596;fill-opacity:1;fill-rule:nonzero;stroke:none"
         d="m 903.867,57.0039 -71.926,69.0981 c -11.503,-7.848 -23.796,-15.137 -36.668,-21.825 L 903.867,0 1238.75,348.797 1238.38,405.277 903.867,57.0039" /><path
         id="path30"
         style="fill:#959596;fill-opacity:1;fill-rule:nonzero;stroke:none"
         d="m 659.844,291.258 -59.239,56.887 -45.328,43.277 -0.16,-56.531 63.731,-61.211 60.918,-58.512 c 15.476,3.863 30.285,8.719 44.207,14.508 l -64.129,61.582" /><path
         id="path32"
         style="fill:#959596;fill-opacity:1;fill-rule:nonzero;stroke:none"
         d="m 892.695,606.688 -47.675,-49.633 -52.579,-54.793 -35.859,-37.313 -67.93,-70.738 28.457,-27.316 72.278,75.242 30.222,31.476 55.371,57.645 17.715,18.465 184.145,-176.524 28.48,29.574 -212.625,203.915" /><path
         id="path34"
         style="fill:#ffffff;fill-opacity:1;fill-rule:nonzero;stroke:none"
         d="m 874.98,531.258 -55.371,-57.645 c 19.817,-25.812 31.055,-55.441 31.055,-86.925 0,-10.668 -1.367,-21.114 -3.848,-31.297 -6.464,-26.496 -20.988,-51.036 -41.711,-72.278 -21.199,-21.734 -48.906,-40.039 -81.132,-53.437 -13.922,-5.789 -28.731,-10.645 -44.207,-14.508 -26.27,-6.516 -54.524,-10.109 -83.938,-10.109 -36.238,0 -70.66,5.39 -101.859,15.109 -42.504,13.25 -78.949,34.488 -105.582,61.082 -9.715,9.688 -18.106,20.117 -25.039,31.121 -8.528,13.535 -14.832,27.942 -18.524,43.02 -2.5,10.183 -3.832,20.629 -3.832,31.297 0,14.035 2.309,27.667 6.481,40.757 l -63.586,64.371 c -23.289,-34.535 -36.43,-73.449 -36.43,-114.66 0,-10.597 0.981,-21.043 2.664,-31.297 4.074,-24.921 13.008,-48.691 26,-70.879 6.516,-11.152 14.082,-21.894 22.606,-32.16 22.371,-26.98 51.214,-50.691 85.027,-69.91 58.707,-33.39 132.223,-53.312 212.074,-53.312 55.871,0 108.606,9.738 155.383,27.011 14.199,5.227 27.812,11.164 40.84,17.735 30.156,15.273 56.914,33.918 79.238,55.246 37.473,35.789 62.5,79.051 70.242,126.269 1.692,10.254 2.649,20.7 2.649,31.297 0,57.793 -25.735,111.149 -69.2,154.102" /><path
         id="path36"
         style="fill:#1c63b7;fill-opacity:1;fill-rule:nonzero;stroke:none"
         d="m 659.543,290.84 63.914,-61.387 c 32.188,13.426 60.129,31.492 81.367,53.242 l -87.636,84.149 -28.458,27.301 67.571,70.371 35.816,37.324 52.602,54.797 47.683,49.629 L 1104.52,402.617 1076.05,372.938 902.266,192.004 C 883.965,166.914 860.223,144.648 832.148,125.43 L 903.563,56.5508 1238.45,405.313 889.68,740.191 759.055,604.156 706.777,549.723 658.672,499.629 555.277,391.422 659.543,290.84" /><path
         id="path38"
         style="fill:#959596;fill-opacity:1;fill-rule:nonzero;stroke:none"
         d="m 364.797,310.633 c 0,0 1.668,-2.754 1.859,-3.055 5.117,-8.137 12.145,-15.574 18.797,-23.008 l 104.184,48.145 -239.422,222.957 -6.527,-34.484 187.835,-185.973 -66.726,-24.582" /><path
         id="path40"
         style="fill:#959596;fill-opacity:1;fill-rule:nonzero;stroke:none"
         d="m 944.18,377.156 c 0,-10.597 -0.957,-21.043 -2.649,-31.297 -7.742,-47.218 -32.769,-90.48 -70.242,-126.269 -22.324,-21.328 -49.082,-39.973 -79.238,-55.246 -13.028,-6.571 -26.641,-12.508 -40.84,-17.735 -46.777,-17.273 -99.512,-27.011 -155.383,-27.011 -79.851,0 -153.367,19.922 -212.074,53.312 -33.813,19.219 -62.656,42.93 -85.027,69.91 -8.524,10.266 -16.09,21.008 -22.606,32.16 -12.992,22.188 -21.926,45.958 -26,70.879 -1.683,10.254 -2.664,20.7 -2.664,31.297 0,3.34 0.258,6.629 0.418,9.914 -0.031,0.176 -0.098,0.434 -0.113,0.598 -1.699,-10.27 -0.305,-62.531 -0.305,-73.117 0,-16.809 2.246,-33.203 6.398,-49.113 3.243,-12.422 7.688,-24.481 13.235,-36.161 13.988,-29.484 34.969,-56.504 61.547,-79.992 63.941,-56.3866 159.894,-92.2811 267.191,-92.2811 74.453,0 143.391,17.3203 200.012,46.7261 12.859,6.688 25.098,13.985 36.582,21.836 28.074,19.207 51.844,41.77 70.144,66.856 26.536,36.308 41.614,77.918 41.614,122.129 0,9.316 0.8,53.515 -0.098,71.058 -0.156,2.407 0.098,-5.406 0.098,-8.453" /></g></g></svg>