<svg xmlns="http://www.w3.org/2000/svg" viewBox="0 0 669 401">
<g transform="translate(0,401) scale(0.1,-0.1)"
fill="#ffffff" stroke="none">
<path d="M811 3984 c-62 -7 -116 -16 -119 -19 -7 -6 -693 -3748 -688 -3752 1
-1 72 -10 158 -19 l155 -16 726 317 725 317 69 -55 c227 -183 526 -321 848
-392 302 -66 676 -72 986 -14 194 36 415 106 558 179 l62 31 67 -62 c37 -34
169 -160 293 -280 l226 -219 899 937 899 936 0 162 0 162 -944 902 -944 903
-37 -39 c-42 -43 -553 -578 -580 -607 -17 -18 -20 -18 -111 12 -176 57 -348
96 -564 129 -182 27 -528 24 -693 -6 -282 -50 -502 -123 -747 -245 l-163 -82
-441 418 -440 418 -43 -1 c-24 -1 -94 -7 -157 -15z m815 -641 c340 -322 789
-748 997 -946 l377 -359 0 -118 0 -118 112 -106 c62 -57 110 -107 108 -109
-14 -12 -695 -317 -707 -317 -46 0 -269 136 -368 224 l-50 44 135 64 c74 36
197 93 273 128 l138 64 -48 47 c-26 26 -320 300 -653 609 -373 348 -606 557
-609 549 -9 -27 -379 -1964 -376 -1967 2 -2 109 41 238 97 129 56 239 101 245
101 6 0 28 -33 50 -72 40 -72 96 -150 180 -247 l44 -51 -24 -10 c-415 -186
-1344 -586 -1346 -579 -5 13 651 3659 658 3659 4 0 285 -264 626 -587z m4132
-352 l882 -845 -43 -45 c-24 -26 -421 -439 -881 -919 l-838 -873 -156 150
c-179 170 -227 219 -221 224 144 106 260 216 348 327 21 27 261 279 533 562
272 282 513 534 536 559 l41 46 -570 548 -571 548 -53 -54 c-29 -30 -283 -294
-565 -588 l-512 -535 88 -85 c229 -220 504 -494 504 -501 0 -8 -90 -80 -160
-127 -25 -17 -87 -52 -138 -78 l-93 -48 -87 85 c-48 46 -241 232 -430 412
l-342 329 22 28 c13 15 408 428 878 917 l855 889 46 -41 c25 -22 442 -421 927
-885z m-2293 434 c66 -9 176 -27 245 -41 130 -27 360 -90 372 -102 4 -4 -58
-75 -137 -158 l-144 -151 -83 24 c-442 128 -969 72 -1352 -143 -44 -25 -84
-46 -87 -47 -4 -1 -79 66 -167 150 l-161 152 42 24 c283 165 661 284 982 311
94 7 370 -3 490 -19z m1827 -915 c255 -245 463 -450 463 -455 0 -10 -757 -804
-762 -800 -2 1 11 41 28 91 73 215 101 396 102 664 1 157 -1 185 -25 276 -55
214 -148 393 -286 552 l-55 63 29 30 c15 16 31 28 36 27 4 -2 215 -203 470
-448z m-469 207 c146 -198 225 -417 234 -652 6 -155 -15 -278 -72 -420 -184
-457 -686 -816 -1305 -934 -169 -32 -293 -44 -481 -43 -588 1 -1110 192 -1467
536 -199 192 -314 391 -363 630 -28 136 -22 330 14 456 35 123 115 300 135
300 4 0 73 -66 154 -147 l146 -148 -15 -70 c-20 -96 -13 -266 17 -360 99 -315
389 -575 791 -709 750 -250 1647 19 1927 579 121 242 104 545 -43 789 l-36 59
28 31 c15 17 73 77 128 134 l100 103 33 -38 c17 -21 51 -64 75 -96z m-3353
-58 c0 -4 -15 -34 -34 -66 -49 -84 -103 -219 -128 -320 -39 -161 -29 -422 24
-668 17 -77 31 -146 32 -153 1 -11 -272 -138 -280 -130 -2 3 264 1403 272
1426 3 9 22 -2 59 -33 30 -26 55 -51 55 -56z m1920 60 c63 -6 121 -14 128 -18
10 -6 -61 -86 -254 -287 -148 -153 -271 -280 -274 -282 -6 -2 -472 435 -478
448 -9 23 289 110 443 129 184 23 276 25 435 10z m923 -380 c66 -57 164 -191
204 -276 l33 -73 -15 -67 c-9 -38 -33 -104 -55 -148 -40 -84 -135 -218 -150
-213 -16 5 -440 419 -440 429 0 11 361 389 371 389 3 0 27 -18 52 -41z m-1993
-529 c0 -5 -299 -116 -329 -122 -17 -4 -74 98 -102 184 l-21 68 21 58 c12 32
36 82 52 111 l31 54 174 -174 c96 -96 174 -176 174 -179z m1254 -558 c78 -80
83 -72 -64 -99 -119 -22 -464 -24 -585 -4 -92 15 -307 69 -317 79 -4 4 144 75
330 159 l337 151 115 -108 c63 -60 146 -140 184 -178z"/>
</g>
</svg>
