<?xml version="1.0" encoding="UTF-8" standalone="no"?><!-- Generator: Gravit.io --><svg xmlns="http://www.w3.org/2000/svg" xmlns:xlink="http://www.w3.org/1999/xlink" style="isolation:isolate" viewBox="0 0 32 32" width="32pt" height="32pt"><mask id="_mask_U8MiCKhYrCScL22LxP2U6w7rreWRrecU"><path d=" M 8 5 L 24 5 L 24 12 L 20 16 L 12 16 L 8 12 L 8 5 Z " fill="white" stroke="none"/></mask><path d=" M 8 5 L 24 5 L 24 12 L 20 16 L 12 16 L 8 12 L 8 5 Z " fill="rgb(167,55,55)" mask="url(#_mask_U8MiCKhYrCScL22LxP2U6w7rreWRrecU)" vector-effect="non-scaling-stroke" stroke-width="4" stroke="rgb(140,42,42)" stroke-linejoin="miter" stroke-linecap="square" stroke-miterlimit="3"/><path d=" M 8 5 L 24 5 L 24 12 L 20 16 L 12 16 L 8 12 L 8 5 Z " fill="rgb(167,55,55)"/><mask id="_mask_3QTWjjQF97z0Kbe6Yj7fPfmm1C4WPMar"><circle vector-effect="non-scaling-stroke" cx="16" cy="21" r="8" fill="white" stroke="none"/></mask><circle vector-effect="non-scaling-stroke" cx="16" cy="21" r="8" fill="rgb(212,212,212)" mask="url(#_mask_3QTWjjQF97z0Kbe6Yj7fPfmm1C4WPMar)" stroke-width="4" stroke="rgb(179,179,179)" stroke-linejoin="miter" stroke-linecap="square" stroke-miterlimit="3"/><circle vector-effect="non-scaling-stroke" cx="16" cy="21" r="8" fill="rgb(212,212,212)"/><rect x="8" y="3" width="16" height="2" transform="matrix(1,0,0,1,0,0)" fill="rgb(179,179,179)"/></svg>