<?xml version="1.0" encoding="UTF-8"?>
<svg width="512px" height="512px" viewBox="0 0 512 512" version="1.1" xmlns="http://www.w3.org/2000/svg" xmlns:xlink="http://www.w3.org/1999/xlink">
    <defs>
        <linearGradient id="gradient" x1="11.9606622%" y1="4.03600257%" x2="89.3609826%" y2="96.0640046%">
            <stop stop-color="#263238" stop-opacity="0.2" offset="0%"></stop>
            <stop stop-color="#263238" stop-opacity="0" offset="100%"></stop>
        </linearGradient>
        <path id="lamp" d="M355.851852,88 C362.533333,88 368,93.4857143 368,100.190476 L368,161.142857 C368,167.847619 362.533333,173.333333 355.851852,173.333333 L341.333333,173.333 L341.333333,341.333333 C341.333333,387.493409 304.490059,425.211884 258.666684,426.625583 L258.666667,426.666667 L257.334045,426.656397 C256.890167,426.663235 256.445476,426.666667 256,426.666667 L255.999982,426.625583 C210.176608,425.211884 173.333333,387.493409 173.333333,341.333333 L173.333333,173.333 L161.481481,173.333333 C154.8,173.333333 149.333333,167.847619 149.333333,161.142857 L149.333333,100.190476 C149.333333,93.4857143 154.8,88 161.481481,88 L355.851852,88 Z M250.666333,341.333 L191.619048,341.333333 C191.619048,375.597293 217.453209,403.939997 250.666494,407.906409 L250.666333,341.333 Z M323.047619,341.333333 L269.333333,341.333 L269.334423,407.04923 C299.938866,400.849225 323.047619,373.739572 323.047619,341.333333 Z M250.666333,258.666 L191.999333,258.666 L191.999333,322.666 L250.666333,322.666 L250.666333,258.666 Z M322.666333,258.666 L269.333333,258.666 L269.333333,322.666 L322.666333,322.666 L322.666333,258.666 Z M250.666333,173.333 L191.999333,173.333 L191.999333,240 L250.666333,240 L250.666333,173.333 Z M322.666333,173.333 L269.333333,173.333 L269.333333,240 L322.666333,240 L322.666333,173.333 Z"></path>
        <filter id="filter"> x="-2.3%" y="-1.5%" width="106.4%" height="104.1%" filterUnits="objectBoundingBox">
            <feOffset dx="2" dy="2" in="SourceAlpha" result="shadowOffsetOuter1"></feOffset>
            <feGaussianBlur stdDeviation="2" in="shadowOffsetOuter1" result="shadowBlurOuter1"></feGaussianBlur>
            <feColorMatrix values="0 0 0 0 0   0 0 0 0 0   0 0 0 0 0  0 0 0 0.4 0" type="matrix" in="shadowBlurOuter1"></feColorMatrix>
        </filter>
    </defs>
    <rect fill="#3F51B5" x="0" y="0" width="512" height="512"></rect>
    <path fill="url(#gradient)" d="M512,240.953782 C511.46,240.317737 367.01,94.0272877 365.84,93.209515 C363.601793,89.9522084 359.926684,88.0065239 356,88 L164,88 C157.453734,88 152.11456,93.2950649 152,99.9031359 L152,160.902922 C152.039181,164.801295 153.966754,168.433203 157.16,170.62533 C158,171.806558 176,189.676405 176,189.827845 L176,342.418173 C175.981978,363.591915 183.84079,384.000382 198.02,399.601686 L199.28,400.994928 C199.67,401.418958 309.29,511.818273 309.5,512 L512,512 L512,240.953782 Z"></path>
    <use fill="black" fill-opacity="1" filter="url(#filter)" xlink:href="#lamp"></use>
    <use fill="#FFFFFF" xlink:href="#lamp"></use>
</svg>