<?xml version="1.0" standalone="no"?>
<!DOCTYPE svg PUBLIC "-//W3C//DTD SVG 20010904//EN"
 "http://www.w3.org/TR/2001/REC-SVG-20010904/DTD/svg10.dtd">
<svg version="1.0" xmlns="http://www.w3.org/2000/svg"
 width="16.000000pt" height="16.000000pt" viewBox="0 0 16.000000 16.000000"
 preserveAspectRatio="xMidYMid meet">
<metadata>
Created by potrace 1.11, written by Peter Selinger 2001-2013
</metadata>
<g transform="translate(0.000000,16.000000) scale(0.008290,-0.008290)"
fill="#000000" stroke="none">
<path d="M747 1849 c-312 -76 -564 -326 -643 -638 -30 -117 -35 -321 -11 -437
36 -172 120 -321 256 -454 126 -124 272 -202 440 -236 126 -25 317 -16 431 21
330 105 568 380 621 715 17 108 6 283 -25 397 -86 317 -332 557 -648 633 -112
27 -310 27 -421 -1z m561 -311 c17 -17 17 -239 0 -256 -7 -7 -24 -12 -39 -12
l-28 0 -3 -312 -3 -313 -28 -57 c-49 -99 -135 -152 -247 -152 -112 0 -198 53
-247 152 l-28 57 -3 313 -3 312 -28 0 c-15 0 -32 5 -39 12 -17 17 -17 239 0
256 17 17 679 17 696 0z"/>
<path d="M740 1160 l0 -110 95 0 95 0 0 110 0 110 -95 0 -95 0 0 -110z"/>
<path d="M990 1160 l0 -110 95 0 95 0 0 110 0 110 -95 0 -95 0 0 -110z"/>
<path d="M740 880 l0 -110 95 0 95 0 0 110 0 110 -95 0 -95 0 0 -110z"/>
<path d="M990 880 l0 -110 95 0 95 0 0 110 0 110 -95 0 -95 0 0 -110z"/>
<path d="M743 669 c10 -75 84 -156 160 -174 l27 -7 0 111 0 111 -96 0 -97 0 6
-41z"/>
<path d="M990 599 l0 -111 28 7 c75 18 149 99 159 174 l6 41 -97 0 -96 0 0
-111z"/>
</g>
</svg>
