<?xml version="1.0" encoding="UTF-8"?>
<svg width="512px" height="512px" viewBox="0 0 512 512" version="1.1" xmlns="http://www.w3.org/2000/svg" xmlns:xlink="http://www.w3.org/1999/xlink">
    <path fill="#3F51B5" fill-rule="nonzero" d="M354.722222,84 C361.475,84 367,89.5928571 367,96.4285714 L367,158.571429 C367,165.407143 361.475,171 354.722222,171 L342,171 L342,342 C342,388.538101 303.961636,426.462123 257.001205,426.994329 L257,427 L256.500936,426.998581 C256.334068,426.999527 256.167089,427 256,427 L256,426.992 L255.580088,426.98859 C208.812468,426.236494 171,388.399709 171,342 L171,171 L158.277778,171 C151.525,171 146,165.407143 146,158.571429 L146,96.4285714 C146,89.5928571 151.525,84 158.277778,84 L354.722222,84 Z M248,342 L189.428571,342 C189.428571,375.810802 214.979666,403.833325 247.999803,408.195772 L248,342 Z M323.571429,342 L266,342 L266.000473,408.056063 C298.534921,403.2655 323.571429,375.468603 323.571429,342 Z M248,256 L189,256 L189,324 L248,324 L248,256 Z M324,256 L266,256 L266,324 L324,324 L324,256 Z M248,171 L189,171 L189,238 L248,238 L248,171 Z M324,171 L266,171 L266,238 L324,238 L324,171 Z"></path>
</svg>